<mxfile host="app.diagrams.net" modified="2024-03-07T17:22:53.601Z" agent="Mozilla/5.0 (Macintosh; Intel Mac OS X 10_15_7) AppleWebKit/537.36 (KHTML, like Gecko) Chrome/122.0.0.0 Safari/537.36" version="24.0.2" etag="YjBIh1U7ZVkPgf6z4CeY" type="github">
  <diagram name="PÃ¡gina-1" id="P0F-0ONnx3YUiZvbO8tp">
    <mxGraphModel>
      <root>
        <mxCell id="0" />
        <mxCell id="1" parent="0" />
      </root>
    </mxGraphModel>
  </diagram>
</mxfile>
